<svg id="Layer_1" data-name="Layer 1" xmlns="http://www.w3.org/2000/svg" viewBox="0 0 600 600"><defs><style>.cls-1{fill:none;}.cls-2{fill:#16a34a;}.cls-3{fill:#222221;}.cls-4{fill:#166534;}</style></defs><rect class="cls-1" width="600" height="600"/><path class="cls-2" d="M304.32,315.15a129,129,0,0,0,9.46,48.6,149.47,149.47,0,1,1,33.91-145.41A129.64,129.64,0,0,0,304.32,315.15Z"/><path class="cls-3" d="M213.8,220.5V487.83H195.34V220.5a9.23,9.23,0,0,1,18.46,0Z"/><path class="cls-3" d="M204.56,337.5a9.23,9.23,0,0,1-7.33-3.62L132,248.6a9.22,9.22,0,1,1,14.65-11.2l65.22,85.28a9.22,9.22,0,0,1-7.32,14.82Z"/><path class="cls-3" d="M204.55,395.55a9.23,9.23,0,0,1-7.32-14.82l65.22-85.28a9.22,9.22,0,1,1,14.65,11.2l-65.22,85.28A9.23,9.23,0,0,1,204.55,395.55Z"/><path class="cls-4" d="M545,315.15A110.7,110.7,0,0,1,328,346,110.69,110.69,0,0,1,434.22,204.46,110.74,110.74,0,0,1,545,315.15Z"/><path class="cls-3" d="M441,284.71V487.83H427.4V284.71a6.82,6.82,0,1,1,13.64,0Z"/><path class="cls-3" d="M434.23,371.34a6.82,6.82,0,0,1-5.42-2.68l-48.3-63.16a6.82,6.82,0,1,1,10.84-8.29l48.3,63.15a6.82,6.82,0,0,1-1.28,9.57A6.75,6.75,0,0,1,434.23,371.34Z"/><path class="cls-3" d="M434.22,414.32a6.82,6.82,0,0,1-5.41-11l48.29-63.16a6.83,6.83,0,0,1,10.85,8.3l-48.3,63.15A6.8,6.8,0,0,1,434.22,414.32Z"/></svg>