<svg xmlns="http://www.w3.org/2000/svg" viewBox="0 0 489.91 375.66"><defs><style>.cls-1{fill:#16a34a;}.cls-2{fill:#222221;}.cls-3{fill:#166534;}</style></defs><g id="Layer_2" data-name="Layer 2"><g id="Layer_1-2" data-name="Layer 1"><path class="cls-1" d="M249.28,203a129,129,0,0,0,9.46,48.59,149.47,149.47,0,1,1,33.9-145.41A129.67,129.67,0,0,0,249.28,203Z"/><path class="cls-2" d="M158.76,108.33V375.66H140.29V108.33a9.24,9.24,0,0,1,18.47,0Z"/><path class="cls-2" d="M149.52,225.33a9.2,9.2,0,0,1-7.33-3.62L77,136.43a9.22,9.22,0,0,1,14.65-11.2l65.22,85.28a9.22,9.22,0,0,1-7.32,14.82Z"/><path class="cls-2" d="M149.51,283.38a9.21,9.21,0,0,1-7.32-14.82l65.22-85.28a9.22,9.22,0,0,1,14.64,11.2l-65.21,85.28A9.2,9.2,0,0,1,149.51,283.38Z"/><path class="cls-3" d="M489.91,203a110.7,110.7,0,0,1-217,30.87A110.69,110.69,0,0,1,379.18,92.3,110.72,110.72,0,0,1,489.91,203Z"/><path class="cls-2" d="M386,172.54V375.66H372.36V172.54a6.82,6.82,0,1,1,13.63,0Z"/><path class="cls-2" d="M379.19,259.17a6.83,6.83,0,0,1-5.43-2.68l-48.29-63.16A6.82,6.82,0,1,1,336.31,185l48.3,63.16a6.83,6.83,0,0,1-5.42,11Z"/><path class="cls-2" d="M379.18,302.16a6.84,6.84,0,0,1-5.42-11L422.06,228a6.82,6.82,0,1,1,10.84,8.29l-48.29,63.16A6.85,6.85,0,0,1,379.18,302.16Z"/></g></g></svg>