<svg xmlns="http://www.w3.org/2000/svg" viewBox="0 0 514.06 127.6"><defs><style>.cls-1{fill:#16a34a;}.cls-2{fill:#222221;}.cls-3{fill:#166534;}</style></defs><g id="Layer_2" data-name="Layer 2"><g id="Layer_1-2" data-name="Layer 1"><path class="cls-1" d="M76.41,62.22a39.5,39.5,0,0,0,2.9,14.89A45.81,45.81,0,1,1,89.7,32.54,39.72,39.72,0,0,0,76.41,62.22Z"/><path class="cls-2" d="M48.66,33.21v81.94H43V33.21a2.83,2.83,0,1,1,5.66,0Z"/><path class="cls-2" d="M45.83,69.07A2.83,2.83,0,0,1,43.58,68l-20-26.14a2.83,2.83,0,0,1,4.49-3.44l20,26.14a2.83,2.83,0,0,1-.53,4A2.8,2.8,0,0,1,45.83,69.07Z"/><path class="cls-2" d="M45.83,86.86a2.82,2.82,0,0,1-2.25-4.54l20-26.14a2.83,2.83,0,0,1,4.49,3.43l-20,26.14A2.81,2.81,0,0,1,45.83,86.86Z"/><path class="cls-3" d="M150.16,62.22a33.93,33.93,0,0,1-66.51,9.46,33.92,33.92,0,0,1,32.57-43.39A33.94,33.94,0,0,1,150.16,62.22Z"/><path class="cls-2" d="M118.31,52.89v62.26h-4.18V52.89a2.09,2.09,0,0,1,4.18,0Z"/><path class="cls-2" d="M116.23,79.44a2.09,2.09,0,0,1-1.67-.82L99.76,59.26a2.09,2.09,0,0,1,3.32-2.54l14.81,19.35a2.09,2.09,0,0,1-1.66,3.37Z"/><path class="cls-2" d="M116.22,92.61a2.09,2.09,0,0,1-1.66-3.36l14.81-19.36a2.09,2.09,0,0,1,3.32,2.54l-14.8,19.36A2.11,2.11,0,0,1,116.22,92.61Z"/><path class="cls-1" d="M197.49,74.29q-3.87-3.41-10.4-3.4H168.23v43.93h9.12V99h9.14q7.17,0,11-3.21t3.86-11Q201.37,77.69,197.49,74.29Zm-7,15.59a7.06,7.06,0,0,1-4.89,1.57h-8.27V78.52h8.27A7.45,7.45,0,0,1,190.51,80q1.74,1.45,1.74,4.89T190.51,89.88Z"/><path class="cls-1" d="M235.13,112.58a4.8,4.8,0,0,1-.5-2.26c0-1.47-.06-2.72-.06-3.76V91.66q0-5.86-4.16-8a20.75,20.75,0,0,0-9.52-2.12q-8.23,0-11.61,4.29a12.42,12.42,0,0,0-2.4,7h8.2a6,6,0,0,1,1.21-3c.84-1,2.28-1.49,4.32-1.49a9,9,0,0,1,4.12.75,2.85,2.85,0,0,1,1.4,2.76,2.57,2.57,0,0,1-1.83,2.42,13.9,13.9,0,0,1-3.39.74l-2.91.36a20.75,20.75,0,0,0-7.51,2.08q-4.65,2.69-4.65,8.68a8.92,8.92,0,0,0,2.89,7.13,10.75,10.75,0,0,0,7.33,2.52,12.27,12.27,0,0,0,6.24-1.58,17.38,17.38,0,0,0,4.07-3.25c.06.74.14,1.4.24,2a9.44,9.44,0,0,0,.54,1.85h9.24v-1.25A3.07,3.07,0,0,1,235.13,112.58Zm-9-10.4q-.09,4.26-2.43,5.87a8.83,8.83,0,0,1-5.13,1.61,4.67,4.67,0,0,1-3-1,3.78,3.78,0,0,1-1.23-3.15,3.89,3.89,0,0,1,2-3.61,13,13,0,0,1,3.9-1.16l1.94-.36a13.26,13.26,0,0,0,2.28-.58A9.3,9.3,0,0,0,226.1,99Z"/><path class="cls-1" d="M260,81.58l-.4,0a9.35,9.35,0,0,0-6.2,2A17.84,17.84,0,0,0,250,88V82.34H241.9v32.48h8.55V99.29a12.9,12.9,0,0,1,1-5.78c1.17-2.22,3.46-3.34,6.88-3.34l1,0c.42,0,.9.06,1.43.12v-8.7Z"/><path class="cls-1" d="M283.63,94.58l11.64-12.1H284.71L274,94.74V71h-8.35v43.78H274V104.6l3.52-3.66,7.87,13.88h10.33Z"/><path class="cls-3" d="M309.55,106.92v-36h-9.18v43.93h31.12v-7.9Z"/><path class="cls-3" d="M364.06,86.44Q360,81.3,351.57,81.29t-12.48,5.15a20.14,20.14,0,0,0,0,24.41q4.11,5.07,12.48,5.07t12.49-5.07a20.18,20.18,0,0,0,0-24.41Zm-6.79,19.71a7.52,7.52,0,0,1-11.46,0c-1.34-1.76-2-4.27-2-7.53s.68-5.76,2-7.51a7.54,7.54,0,0,1,11.46,0c1.33,1.75,2,4.26,2,7.51S358.6,104.39,357.27,106.15Z"/><path class="cls-3" d="M401.34,86.44q-4.11-5.14-12.49-5.15t-12.48,5.15a20.18,20.18,0,0,0,0,24.41q4.11,5.07,12.48,5.07t12.49-5.07a20.14,20.14,0,0,0,0-24.41Zm-6.79,19.71a7.52,7.52,0,0,1-11.46,0q-2-2.64-2-7.53c0-3.25.67-5.76,2-7.51a7.54,7.54,0,0,1,11.46,0c1.33,1.75,2,4.26,2,7.51S395.88,104.39,394.55,106.15Z"/><path class="cls-3" d="M429.42,94.58l11.65-12.1H430.5L419.79,94.74V71h-8.34v43.78h8.34V104.6l3.52-3.66,7.87,13.88h10.34Z"/><path class="cls-3" d="M465.89,82.34V100a12.65,12.65,0,0,1-.83,5q-1.59,3.52-5.93,3.52-3.37,0-4.53-2.47a10.24,10.24,0,0,1-.66-4.18V82.34h-8.7v19.57q0,5.58,1.4,8.44,2.49,5.19,9.69,5.18a13,13,0,0,0,4.35-.65,11.87,11.87,0,0,0,3.85-2.44,6.26,6.26,0,0,0,1.13-1.32c.31-.49.51-.79.59-.89v4.59h8.26V82.34Z"/><path class="cls-3" d="M510.08,85.82a12.84,12.84,0,0,0-9.7-4.2,10.86,10.86,0,0,0-6.78,2.18,13.54,13.54,0,0,0-2.94,3.33V82.34h-8.14V127.6h8.41V110.68a12.62,12.62,0,0,0,2.76,3.13,10.5,10.5,0,0,0,6.48,1.93,12.6,12.6,0,0,0,10-4.5q3.88-4.5,3.89-13.08Q514.06,90,510.08,85.82Zm-6.67,20.06a6.21,6.21,0,0,1-5.46,2.74,7,7,0,0,1-4.28-1.34q-3-2.3-3-8a16.53,16.53,0,0,1,.9-5.9A6.4,6.4,0,0,1,498,89a6,6,0,0,1,5.61,2.89,14.38,14.38,0,0,1-.15,13.95Z"/></g></g></svg>