<svg xmlns="http://www.w3.org/2000/svg" viewBox="0 0 538.53 126.91"><defs><style>.cls-1{fill:#16a34a;}.cls-2{fill:#222221;}.cls-3{fill:#166534;}</style></defs><g id="Layer_2" data-name="Layer 2"><g id="Layer_1-2" data-name="Layer 1"><path class="cls-1" d="M84.21,68.58A43.54,43.54,0,0,0,87.41,85,50.5,50.5,0,1,1,98.86,35.87,43.84,43.84,0,0,0,84.21,68.58Z"/><path class="cls-2" d="M53.63,36.6v90.31H47.4V36.6a3.12,3.12,0,1,1,6.23,0Z"/><path class="cls-2" d="M50.51,76.13A3.12,3.12,0,0,1,48,74.9L26,46.09A3.11,3.11,0,1,1,31,42.31L53,71.12a3.1,3.1,0,0,1-.58,4.36A3.05,3.05,0,0,1,50.51,76.13Z"/><path class="cls-2" d="M50.51,95.74a3.11,3.11,0,0,1-2.47-5l22-28.81a3.11,3.11,0,0,1,5,3.78L53,94.51A3.09,3.09,0,0,1,50.51,95.74Z"/><path class="cls-3" d="M165.51,68.58A37.39,37.39,0,0,1,92.2,79a36.73,36.73,0,0,1-1.5-10.43,37.41,37.41,0,0,1,74.81,0Z"/><path class="cls-2" d="M130.4,58.29v68.62h-4.6V58.29a2.3,2.3,0,0,1,4.6,0Z"/><path class="cls-2" d="M128.1,87.56a2.31,2.31,0,0,1-1.83-.91L110,65.31a2.31,2.31,0,0,1,3.67-2.8l16.31,21.34a2.31,2.31,0,0,1-1.83,3.71Z"/><path class="cls-2" d="M128.1,102.08a2.31,2.31,0,0,1-1.83-3.71L142.59,77a2.3,2.3,0,1,1,3.66,2.8l-16.32,21.33A2.28,2.28,0,0,1,128.1,102.08Z"/><path class="cls-1" d="M222,49.63q-3.87-3.41-10.4-3.4H192.7V90.16h9.12V74.36H211q7.17,0,11-3.21t3.86-11Q225.84,53,222,49.63Zm-7,15.59a7.06,7.06,0,0,1-4.89,1.57h-8.27V53.86h8.27A7.45,7.45,0,0,1,215,55.32q1.74,1.45,1.74,4.89T215,65.22Z"/><path class="cls-1" d="M259.6,87.92a4.8,4.8,0,0,1-.5-2.26c0-1.47-.06-2.72-.06-3.76V67q0-5.86-4.16-8a20.75,20.75,0,0,0-9.52-2.12q-8.24,0-11.61,4.29a12.42,12.42,0,0,0-2.4,7h8.2a6,6,0,0,1,1.21-3c.84-1,2.28-1.49,4.32-1.49a9,9,0,0,1,4.12.75,2.85,2.85,0,0,1,1.4,2.76,2.57,2.57,0,0,1-1.83,2.42,13.9,13.9,0,0,1-3.39.74l-2.91.36A20.75,20.75,0,0,0,235,72.84q-4.65,2.68-4.65,8.68a8.92,8.92,0,0,0,2.89,7.13,10.75,10.75,0,0,0,7.33,2.52,12.27,12.27,0,0,0,6.24-1.58,17.38,17.38,0,0,0,4.07-3.25c.06.74.14,1.4.24,2a9.44,9.44,0,0,0,.54,1.85h9.24V88.91A3.07,3.07,0,0,1,259.6,87.92Zm-9-10.4q-.09,4.26-2.43,5.87A8.83,8.83,0,0,1,243,85a4.67,4.67,0,0,1-3-1,3.78,3.78,0,0,1-1.23-3.15,3.89,3.89,0,0,1,2-3.61,13,13,0,0,1,3.9-1.16l1.94-.36a13.26,13.26,0,0,0,2.28-.58,9.3,9.3,0,0,0,1.64-.82Z"/><path class="cls-1" d="M284.5,56.92l-.4,0a9.35,9.35,0,0,0-6.2,2,17.84,17.84,0,0,0-3.42,4.44V57.68h-8.11V90.16h8.55V74.63a12.9,12.9,0,0,1,1-5.78c1.17-2.22,3.46-3.34,6.88-3.34l1,0c.42,0,.9.06,1.43.12V57Z"/><path class="cls-1" d="M308.1,69.92l11.64-12.1H309.18L298.47,70.08V46.38h-8.35V90.16h8.35V79.94L302,76.28l7.87,13.88h10.33Z"/><path class="cls-3" d="M334,82.26v-36h-9.18V90.16H356v-7.9Z"/><path class="cls-3" d="M388.53,61.78q-4.11-5.14-12.49-5.15t-12.48,5.15A18.91,18.91,0,0,0,359.44,74a18.78,18.78,0,0,0,4.12,12.23q4.11,5.07,12.48,5.07t12.49-5.07A18.83,18.83,0,0,0,392.64,74,19,19,0,0,0,388.53,61.78Zm-6.79,19.71a7.52,7.52,0,0,1-11.46,0c-1.34-1.76-2-4.27-2-7.53s.68-5.76,2-7.51a7.54,7.54,0,0,1,11.46,0c1.33,1.75,2,4.26,2,7.51S383.07,79.73,381.74,81.49Z"/><path class="cls-3" d="M425.81,61.78q-4.11-5.14-12.49-5.15t-12.48,5.15A19,19,0,0,0,396.73,74a18.83,18.83,0,0,0,4.11,12.23q4.11,5.07,12.48,5.07t12.49-5.07A18.84,18.84,0,0,0,429.93,74,19,19,0,0,0,425.81,61.78ZM419,81.49a7.52,7.52,0,0,1-11.46,0q-2-2.64-2-7.53c0-3.25.67-5.76,2-7.51a7.54,7.54,0,0,1,11.46,0c1.33,1.75,2,4.26,2,7.51S420.35,79.73,419,81.49Z"/><path class="cls-3" d="M453.89,69.92l11.65-12.1H455L444.26,70.08V46.38h-8.34V90.16h8.34V79.94l3.52-3.66,7.87,13.88H466Z"/><path class="cls-3" d="M490.36,57.68V75.35a12.65,12.65,0,0,1-.83,5q-1.59,3.53-5.93,3.52-3.37,0-4.53-2.47a10.24,10.24,0,0,1-.66-4.18V57.68h-8.7V77.25q0,5.58,1.4,8.44,2.49,5.19,9.69,5.18a13,13,0,0,0,4.35-.65A11.87,11.87,0,0,0,489,87.78a6.26,6.26,0,0,0,1.13-1.32c.31-.49.51-.79.59-.89v4.59H499V57.68Z"/><path class="cls-3" d="M534.55,61.16a12.84,12.84,0,0,0-9.7-4.2,10.86,10.86,0,0,0-6.78,2.18,13.54,13.54,0,0,0-2.94,3.33V57.68H507v45.26h8.41V86a12.62,12.62,0,0,0,2.76,3.13,10.5,10.5,0,0,0,6.48,1.93,12.6,12.6,0,0,0,10-4.5q3.89-4.5,3.89-13.08Q538.53,65.37,534.55,61.16Zm-6.67,20.06A6.21,6.21,0,0,1,522.42,84a7,7,0,0,1-4.28-1.34q-3-2.3-3-8a16.53,16.53,0,0,1,.9-5.9,6.4,6.4,0,0,1,6.42-4.38A6,6,0,0,1,528,67.27a12.63,12.63,0,0,1,1.73,6.65A12.64,12.64,0,0,1,527.88,81.22Z"/></g></g></svg>